<?xml version="1.0" encoding="UTF-8" ?>
<!DOCTYPE svg PUBLIC "-//W3C//DTD SVG 1.1//EN" "http://www.w3.org/Graphics/SVG/1.1/DTD/svg11.dtd">
<svg width="94pt" height="95pt" viewBox="0 0 94 95" version="1.1" xmlns="http://www.w3.org/2000/svg">
<path fill="#ffffff" d=" M 0.00 0.00 L 94.00 0.00 L 94.00 47.71 C 93.98 34.97 88.82 22.24 79.51 13.48 C 69.25 3.40 54.14 -1.33 39.95 0.99 C 27.38 2.83 15.85 10.27 8.69 20.72 C -0.27 33.48 -2.07 50.79 3.80 65.20 C 9.39 79.39 22.33 90.27 37.18 93.60 C 45.89 95.09 55.18 95.17 63.44 91.64 C 81.43 85.26 94.01 66.90 94.00 47.88 L 94.00 95.00 L 0.00 95.00 L 0.00 0.00 Z" />
<path fill="#494949" d=" M 8.69 20.72 C 15.85 10.27 27.38 2.83 39.95 0.99 C 54.14 -1.33 69.25 3.40 79.51 13.48 C 88.82 22.24 93.98 34.97 94.00 47.71 L 94.00 47.88 C 94.01 66.90 81.43 85.26 63.44 91.64 C 55.18 95.17 45.89 95.09 37.18 93.60 C 22.33 90.27 9.39 79.39 3.80 65.20 C -2.07 50.79 -0.27 33.48 8.69 20.72 Z" />
<path fill="#ffffff" d=" M 60.64 22.49 C 61.41 21.10 63.58 21.28 64.55 22.38 C 64.82 23.56 63.99 24.49 63.44 25.43 C 53.19 41.22 43.00 57.05 32.85 72.91 C 31.45 72.85 30.08 72.63 28.73 72.26 C 38.99 55.45 49.98 39.06 60.64 22.49 Z" />
<path fill="#ffffff" d=" M 31.24 24.09 C 36.10 22.48 41.39 26.54 41.57 31.55 C 41.86 35.77 42.41 40.83 39.20 44.15 C 35.83 48.06 28.65 47.30 26.25 42.70 C 24.48 39.10 24.40 34.82 25.17 30.94 C 25.71 27.79 28.07 24.85 31.24 24.09 Z" />
<path fill="#494949" d=" M 32.32 28.18 C 34.82 27.42 37.46 29.39 37.43 32.00 C 37.57 35.50 38.57 40.75 34.52 42.44 C 31.68 43.47 29.08 40.70 29.26 37.93 C 29.24 34.66 28.19 29.37 32.32 28.18 Z" />
<path fill="#ffffff" d=" M 53.75 49.67 C 58.35 50.09 64.42 47.97 67.61 52.42 C 69.77 55.89 69.34 60.29 69.06 64.18 C 68.93 67.19 67.16 70.13 64.29 71.24 C 60.82 71.83 57.26 71.46 53.75 71.45 C 53.74 64.19 53.74 56.93 53.75 49.67 Z" />
<path fill="#494949" d=" M 57.64 53.42 C 60.28 53.39 64.02 52.93 64.98 56.18 C 65.51 59.23 65.73 62.57 64.66 65.54 C 63.44 68.35 60.07 67.51 57.65 67.66 C 57.67 62.91 57.68 58.16 57.64 53.42 Z" />
</svg>
