<?xml version="1.0" encoding="UTF-8" ?>
<!DOCTYPE svg PUBLIC "-//W3C//DTD SVG 1.1//EN" "http://www.w3.org/Graphics/SVG/1.1/DTD/svg11.dtd">
<svg width="94pt" height="95pt" viewBox="0 0 94 95" version="1.1" xmlns="http://www.w3.org/2000/svg">
<path fill="#ffffff" d=" M 0.00 0.00 L 94.00 0.00 L 94.00 46.76 C 93.92 32.65 87.05 18.78 75.89 10.15 C 65.16 1.61 50.50 -1.76 37.13 1.34 C 22.47 4.42 9.86 15.24 4.08 28.98 C -0.46 39.69 -0.86 52.06 2.98 63.04 C 7.00 74.78 15.93 84.72 27.12 90.06 C 38.83 95.70 52.93 96.05 64.94 91.09 C 81.33 84.49 92.89 68.05 94.00 50.46 L 94.00 95.00 L 0.00 95.00 L 0.00 0.00 Z" />
<path fill="#e41e26" d=" M 4.08 28.98 C 9.86 15.24 22.47 4.42 37.13 1.34 C 50.50 -1.76 65.16 1.61 75.89 10.15 C 87.05 18.78 93.92 32.65 94.00 46.76 L 94.00 50.46 C 92.89 68.05 81.33 84.49 64.94 91.09 C 52.93 96.05 38.83 95.70 27.12 90.06 C 15.93 84.72 7.00 74.78 2.98 63.04 C -0.86 52.06 -0.46 39.69 4.08 28.98 Z" />
<path fill="#ffffff" d=" M 60.65 22.54 C 61.40 20.53 66.00 21.89 64.26 23.90 C 53.86 40.28 43.29 56.56 32.76 72.86 C 31.29 72.92 29.70 73.04 28.91 71.54 C 39.59 55.27 49.99 38.81 60.65 22.54 Z" />
<path fill="#ffffff" d=" M 30.31 24.44 C 34.80 22.37 40.54 25.48 41.32 30.34 C 41.91 35.09 42.63 41.09 38.64 44.64 C 34.59 48.52 26.80 46.44 25.53 40.87 C 24.06 35.29 24.11 27.10 30.31 24.44 Z" />
<path fill="#e41e26" d=" M 31.44 28.39 C 32.76 27.90 34.28 27.90 35.57 28.49 C 38.42 30.76 37.56 34.85 37.54 38.02 C 37.66 40.96 34.53 43.68 31.68 42.36 C 28.97 40.98 29.10 37.62 29.10 35.03 C 29.13 32.69 29.02 29.67 31.44 28.39 Z" />
<path fill="#ffffff" d=" M 53.80 49.71 C 58.53 50.12 65.04 47.96 67.95 53.01 C 69.81 57.67 69.72 63.29 67.96 67.97 C 65.17 73.16 58.56 71.11 53.80 71.41 C 53.79 64.18 53.79 56.95 53.80 49.71 Z" />
<path fill="#e41e26" d=" M 57.60 53.38 C 60.25 53.28 64.04 52.90 65.01 56.14 C 65.56 59.24 65.78 62.63 64.67 65.63 C 63.42 68.40 60.03 67.58 57.61 67.70 C 57.62 62.92 57.63 58.15 57.60 53.38 Z" />
</svg>
